<svg width="10" height="9" viewBox="0 0 10 9" fill="none" xmlns="http://www.w3.org/2000/svg">
<g clip-path="url(#clip0_1_543)">
<path d="M4.37526 7.34606C4.37525 7.29532 4.36408 7.2452 4.34255 7.19926C4.32101 7.15332 4.28963 7.11267 4.25064 7.08021C4.21165 7.04774 4.16599 7.02425 4.11691 7.0114C4.06782 6.99854 4.01651 6.99664 3.96661 7.00583C3.51371 7.08895 2.94187 7.10145 2.78983 6.67439C2.65726 6.34364 2.43766 6.05493 2.15431 5.83886C2.13409 5.82787 2.11483 5.81521 2.09671 5.80102C2.07191 5.73561 2.02786 5.67925 1.97038 5.63938C1.9129 5.59951 1.84468 5.578 1.77472 5.57769H1.77303C1.68156 5.57766 1.59379 5.61387 1.52895 5.67839C1.46411 5.74292 1.42747 5.8305 1.42706 5.92198C1.42571 6.20409 1.70764 6.38485 1.82202 6.446C1.9569 6.58152 2.06529 6.74102 2.14164 6.91631C2.26767 7.27039 2.63391 7.80759 3.68669 7.73834C3.68704 7.7505 3.68737 7.76199 3.68754 7.77246L3.68905 7.86504C3.68905 7.95679 3.72551 8.04479 3.79039 8.10968C3.85527 8.17456 3.94327 8.21101 4.03503 8.21101C4.12678 8.21101 4.21478 8.17456 4.27967 8.10968C4.34455 8.04479 4.381 7.95679 4.381 7.86504L4.37931 7.75489C4.37762 7.68933 4.37526 7.59439 4.37526 7.34606ZM8.06574 2.11288C8.07672 2.06963 8.08754 2.02166 8.097 1.9676C8.15295 1.58205 8.10417 1.18854 7.95577 0.828314C7.93704 0.781353 7.90827 0.739056 7.87147 0.704388C7.83467 0.66972 7.79074 0.64352 7.74275 0.627626C7.61958 0.586068 7.16483 0.504304 6.29517 1.06009C5.57227 0.889975 4.81976 0.889975 4.09686 1.06009C3.23074 0.512445 2.77834 0.58676 2.65638 0.625951C2.6072 0.641202 2.56206 0.667263 2.52427 0.702224C2.48647 0.737185 2.45698 0.78016 2.43795 0.827999C2.28651 1.19514 2.23827 1.59667 2.29841 1.98923C2.30686 2.03349 2.31598 2.07438 2.32544 2.11188C2.03883 2.49364 1.88616 2.95929 1.89112 3.43664C1.89018 3.54314 1.89509 3.64962 1.90581 3.75558C2.02137 5.34793 3.05928 5.82601 3.78247 5.99022C3.76744 6.03346 3.75376 6.07975 3.74159 6.12874C3.71991 6.21776 3.73442 6.31174 3.78193 6.39008C3.82945 6.46841 3.90608 6.52471 3.99504 6.54663C4.084 6.56854 4.17802 6.55429 4.25649 6.50698C4.33495 6.45968 4.39145 6.38319 4.4136 6.29429C4.43562 6.17902 4.49204 6.07312 4.57544 5.99055C4.62587 5.9464 4.66238 5.88855 4.68053 5.82403C4.69868 5.75952 4.6977 5.69111 4.67769 5.62715C4.65768 5.56318 4.61951 5.50641 4.56783 5.46374C4.51614 5.42106 4.45317 5.39433 4.38658 5.38679C3.19155 5.25029 2.67276 4.76343 2.59472 3.69207C2.58607 3.60721 2.58218 3.52194 2.58306 3.43664C2.57751 3.09643 2.68991 2.76479 2.90116 2.49806C2.92238 2.47025 2.94499 2.44353 2.9689 2.41798C3.01126 2.37059 3.03974 2.31243 3.05121 2.24991C3.06268 2.18739 3.05671 2.12292 3.03394 2.06357C3.0106 2.00113 2.99263 1.93681 2.98022 1.87132C2.95204 1.68509 2.96128 1.49511 3.00742 1.31249C3.30811 1.39742 3.59111 1.53566 3.84294 1.72063C3.88458 1.74837 3.93171 1.76683 3.98111 1.77475C4.03052 1.78268 4.08105 1.77989 4.12928 1.76658C4.82853 1.57681 5.56573 1.57693 6.26491 1.76693C6.31341 1.78023 6.36421 1.78285 6.41382 1.77463C6.46342 1.76641 6.51066 1.74753 6.55227 1.71929C6.80292 1.53355 7.08473 1.39407 7.38443 1.30743C7.43036 1.48566 7.44063 1.67121 7.41466 1.85342C7.40213 1.92522 7.38255 1.99561 7.35621 2.06357C7.33344 2.12292 7.32747 2.1874 7.33894 2.24992C7.35042 2.31244 7.3789 2.37059 7.42125 2.41799C7.44795 2.44806 7.47464 2.48049 7.49862 2.5109C7.70838 2.77312 7.81888 3.10095 7.81065 3.43664C7.81128 3.52646 7.80694 3.61624 7.79764 3.70558C7.72146 4.76275 7.20064 5.24995 6.00004 5.38679C5.93343 5.39437 5.87045 5.42115 5.81877 5.46386C5.7671 5.50658 5.72894 5.56339 5.70895 5.62738C5.68896 5.69138 5.688 5.7598 5.70618 5.82434C5.72436 5.88887 5.76089 5.94673 5.81135 5.99089C5.89737 6.07566 5.95391 6.1858 5.97268 6.3051C5.99606 6.39772 6.0068 6.49307 6.00461 6.58857V7.39607C6.00122 7.62006 6.00122 7.78798 6.00122 7.86502C6.00122 7.95677 6.03767 8.04477 6.10255 8.10966C6.16743 8.17454 6.25543 8.21099 6.34719 8.21099C6.43895 8.21099 6.52695 8.17454 6.59183 8.10966C6.65671 8.04477 6.69316 7.95677 6.69316 7.86502C6.69316 7.79001 6.69316 7.62547 6.69654 7.40147V6.58857C6.69933 6.43559 6.68131 6.28294 6.64299 6.13482C6.63203 6.08619 6.61861 6.03816 6.60278 5.99089C7.1291 5.90346 7.6073 5.6321 7.95229 5.22512C8.29728 4.81814 8.48665 4.30195 8.48671 3.76842C8.49811 3.65821 8.50341 3.54744 8.5026 3.43664C8.51028 2.95877 8.35634 2.49232 8.06574 2.11289L8.06574 2.11288Z" fill="#F1F1F1" fill-opacity="0.7"/>
</g>
<defs>
<clipPath id="clip0_1_543">
<rect width="8.30334" height="8.30334" fill="white" transform="translate(0.891235 0.252569)"/>
</clipPath>
</defs>
</svg>
