<svg width="9" height="9" viewBox="0 0 9 9" fill="none" xmlns="http://www.w3.org/2000/svg">
<g clip-path="url(#clip0_1_541)">
<path d="M4.66845 2.67441C4.32631 2.67441 3.99186 2.77587 3.70739 2.96595C3.42291 3.15602 3.20119 3.42619 3.07026 3.74228C2.93934 4.05837 2.90508 4.40619 2.97183 4.74175C3.03857 5.07731 3.20333 5.38554 3.44525 5.62747C3.68718 5.86939 3.99541 6.03415 4.33097 6.10089C4.66653 6.16764 5.01435 6.13339 5.33044 6.00246C5.64653 5.87153 5.9167 5.64981 6.10677 5.36533C6.29685 5.08086 6.39831 4.74641 6.39831 4.40427C6.39831 3.94548 6.21606 3.50549 5.89164 3.18108C5.56723 2.85666 5.12724 2.67441 4.66845 2.67441ZM4.66845 5.44219C4.46317 5.44219 4.2625 5.38132 4.09181 5.26727C3.92113 5.15322 3.78809 4.99112 3.70954 4.80147C3.63098 4.61181 3.61043 4.40312 3.65047 4.20178C3.69052 4.00045 3.78937 3.81551 3.93453 3.67035C4.07968 3.5252 4.26462 3.42635 4.46596 3.3863C4.6673 3.34625 4.87599 3.3668 5.06564 3.44536C5.2553 3.52392 5.4174 3.65695 5.53144 3.82764C5.64549 3.99832 5.70636 4.19899 5.70636 4.40427C5.70636 4.67954 5.59701 4.94354 5.40237 5.13819C5.20772 5.33284 4.94372 5.44219 4.66845 5.44219ZM6.39831 2.32844C6.32988 2.32844 6.26299 2.34873 6.2061 2.38675C6.1492 2.42476 6.10486 2.47879 6.07867 2.54201C6.05249 2.60523 6.04564 2.67479 6.05898 2.74191C6.07233 2.80902 6.10528 2.87067 6.15367 2.91905C6.20205 2.96744 6.2637 3.00039 6.33081 3.01374C6.39792 3.02708 6.46749 3.02023 6.53071 2.99405C6.59392 2.96786 6.64796 2.92352 6.68597 2.86662C6.72399 2.80973 6.74428 2.74284 6.74428 2.67441C6.74428 2.58265 6.70783 2.49465 6.64295 2.42977C6.57807 2.36489 6.49007 2.32844 6.39831 2.32844ZM8.10741 3.10342C8.10168 2.80776 8.04552 2.51524 7.94135 2.23849C7.84474 1.98664 7.69626 1.75793 7.50552 1.5672C7.31479 1.37646 7.08608 1.22798 6.83423 1.13137C6.55748 1.0272 6.26496 0.97104 5.9693 0.965308C5.63371 0.94455 5.523 0.94455 4.66845 0.94455C3.8139 0.94455 3.70319 0.94455 3.36759 0.965308C3.07193 0.97104 2.77942 1.0272 2.50266 1.13137C2.25082 1.22798 2.0221 1.37646 1.83137 1.5672C1.64064 1.75793 1.49215 1.98664 1.39555 2.23849C1.29138 2.51524 1.23522 2.80776 1.22948 3.10342C1.20872 3.44247 1.20872 3.55318 1.20872 4.40427C1.20872 5.25536 1.20872 5.36608 1.22948 5.70513C1.23522 6.00079 1.29138 6.2933 1.39555 6.57006C1.49215 6.8219 1.64064 7.05062 1.83137 7.24135C2.0221 7.43208 2.25082 7.58057 2.50266 7.67717C2.77942 7.78134 3.07193 7.8375 3.36759 7.84324C3.71356 7.84324 3.8139 7.864 4.66845 7.864C5.523 7.864 5.63371 7.864 5.9693 7.84324C6.26496 7.8375 6.55748 7.78134 6.83423 7.67717C7.08608 7.58057 7.31479 7.43208 7.50552 7.24135C7.69626 7.05062 7.84474 6.8219 7.94135 6.57006C8.04552 6.2933 8.10168 6.00079 8.10741 5.70513C8.10741 5.35916 8.12817 5.25536 8.12817 4.40427C8.12817 3.55318 8.12817 3.44247 8.10741 3.10342ZM7.41547 5.67399C7.4094 5.89355 7.36853 6.11075 7.29438 6.3175C7.23307 6.48092 7.13616 6.62864 7.01068 6.74996C6.89008 6.8755 6.74206 6.97141 6.57821 7.0302C6.37098 7.10739 6.15233 7.14948 5.93125 7.15475C5.60603 7.15475 5.5057 7.17205 4.66499 7.17205C3.82428 7.17205 3.7274 7.17205 3.40219 7.17205C3.18147 7.16635 2.96306 7.12547 2.75522 7.05096C2.5918 6.98965 2.44408 6.89274 2.32276 6.76726C2.19722 6.64667 2.10131 6.49865 2.04252 6.3348C1.96564 6.12867 1.92356 5.91121 1.91797 5.69129C1.91797 5.34532 1.91797 5.25882 1.91797 4.42157C1.91797 3.58432 1.91797 3.48399 1.91797 3.15185C1.92393 2.93085 1.966 2.71231 2.04252 2.50488C2.10222 2.3425 2.19804 2.1958 2.32276 2.07588C2.44335 1.95034 2.59137 1.85443 2.75522 1.79564C2.96246 1.71845 3.18111 1.67636 3.40219 1.67109C3.7274 1.63649 3.82773 1.63649 4.66845 1.63649C5.50916 1.63649 5.60949 1.63649 5.93471 1.63649C6.15687 1.64214 6.3766 1.68422 6.58513 1.76104C6.74752 1.82074 6.89422 1.91657 7.01414 2.04128C7.13967 2.16188 7.23559 2.3099 7.29438 2.47375C7.37907 2.68429 7.42705 2.9078 7.43623 3.13455C7.43623 3.48053 7.45352 3.56702 7.45352 4.40427C7.45352 5.24153 7.43623 5.34186 7.43623 5.67399H7.41547Z" fill="#F1F1F1" fill-opacity="0.7"/>
</g>
<defs>
<clipPath id="clip0_1_541">
<rect width="8.30334" height="8.30334" fill="white" transform="translate(0.516693 0.252609)"/>
</clipPath>
</defs>
</svg>
