<svg width="9" height="9" viewBox="0 0 9 9" fill="none" xmlns="http://www.w3.org/2000/svg">
<g clip-path="url(#clip0_1_547)">
<path d="M6.69461 3.36599C6.38487 3.36586 6.07993 3.44247 5.80704 3.58898C5.78214 3.52339 5.73787 3.46693 5.68012 3.4271C5.62236 3.38727 5.55386 3.36596 5.4837 3.36599H4.09981C4.05437 3.36596 4.00937 3.37489 3.96738 3.39227C3.9254 3.40965 3.88725 3.43513 3.85512 3.46726C3.82298 3.4994 3.7975 3.53755 3.78012 3.57953C3.76275 3.62152 3.75382 3.66652 3.75384 3.71196V7.86363C3.75381 7.90907 3.76275 7.95407 3.78012 7.99606C3.7975 8.03804 3.82298 8.07619 3.85511 8.10833C3.88725 8.14046 3.9254 8.16594 3.96738 8.18332C4.00937 8.2007 4.05437 8.20963 4.09981 8.2096H5.4837C5.52914 8.20963 5.57414 8.2007 5.61613 8.18332C5.65812 8.16594 5.69627 8.14046 5.7284 8.10833C5.76053 8.07619 5.78602 8.03804 5.80339 7.99606C5.82077 7.95407 5.8297 7.90907 5.82967 7.86363V5.96078C5.82967 5.86902 5.86613 5.78102 5.93101 5.71614C5.99589 5.65126 6.08389 5.61481 6.17565 5.61481C6.2674 5.61481 6.3554 5.65126 6.42029 5.71614C6.48517 5.78102 6.52162 5.86902 6.52162 5.96078V7.86363C6.52159 7.90907 6.53052 7.95407 6.5479 7.99606C6.56528 8.03804 6.59076 8.07619 6.62289 8.10833C6.65502 8.14046 6.69318 8.16594 6.73516 8.18332C6.77715 8.2007 6.82215 8.20963 6.86759 8.2096H8.25148C8.29692 8.20963 8.34192 8.2007 8.38391 8.18332C8.4259 8.16594 8.46405 8.14046 8.49618 8.10833C8.52831 8.07619 8.55379 8.03804 8.57117 7.99606C8.58855 7.95407 8.59748 7.90907 8.59745 7.86363V5.26884C8.59683 4.76436 8.39615 4.28073 8.03943 3.92401C7.68271 3.5673 7.19908 3.36662 6.69461 3.36599ZM7.90551 7.51766H7.21356V5.96078C7.21356 5.68551 7.10421 5.42151 6.90956 5.22686C6.71492 5.03222 6.45092 4.92286 6.17565 4.92286C5.90037 4.92286 5.63638 5.03222 5.44173 5.22686C5.24708 5.42151 5.13773 5.68551 5.13773 5.96078V7.51766H4.44579V4.05793H5.13773V4.3012C5.13777 4.37288 5.16007 4.44279 5.20154 4.50126C5.24302 4.55973 5.30162 4.60388 5.36927 4.62761C5.43691 4.65134 5.51025 4.65349 5.57917 4.63375C5.64808 4.61402 5.70917 4.57337 5.75399 4.51743C5.90926 4.32024 6.12222 4.17645 6.36316 4.10615C6.60409 4.03585 6.86097 4.04254 7.09791 4.1253C7.33486 4.20805 7.54005 4.36273 7.68483 4.56774C7.82962 4.77275 7.90677 5.01786 7.90551 5.26884V7.51766ZM3.0619 3.36599H1.67801C1.63257 3.36596 1.58757 3.37489 1.54558 3.39227C1.50359 3.40965 1.46544 3.43513 1.43331 3.46726C1.40118 3.4994 1.3757 3.53755 1.35832 3.57953C1.34094 3.62152 1.33201 3.66652 1.33204 3.71196V7.86363C1.33201 7.90907 1.34094 7.95407 1.35832 7.99606C1.37569 8.03804 1.40118 8.07619 1.43331 8.10833C1.46544 8.14046 1.50359 8.16594 1.54558 8.18332C1.58757 8.2007 1.63257 8.20963 1.67801 8.2096H3.0619C3.10734 8.20963 3.15234 8.2007 3.19433 8.18332C3.23631 8.16594 3.27446 8.14046 3.30659 8.10833C3.33873 8.07619 3.36421 8.03804 3.38159 7.99606C3.39896 7.95407 3.4079 7.90907 3.40787 7.86363V3.71196C3.40789 3.66652 3.39896 3.62152 3.38159 3.57953C3.36421 3.53755 3.33873 3.4994 3.30659 3.46726C3.27446 3.43513 3.23631 3.40965 3.19432 3.39227C3.15234 3.37489 3.10734 3.36596 3.0619 3.36599ZM2.71592 7.51766H2.02398V4.05793H2.71592V7.51766ZM2.37502 0.786073C2.22361 0.77701 2.07194 0.798839 1.92923 0.850232C1.78652 0.901625 1.65575 0.981509 1.54488 1.08503C1.43401 1.18854 1.34536 1.31353 1.28431 1.45238C1.22326 1.59124 1.19109 1.74106 1.18976 1.89273C1.18843 2.04441 1.21797 2.19477 1.27657 2.33467C1.33517 2.47458 1.42162 2.6011 1.53066 2.70655C1.63969 2.81199 1.76904 2.89416 1.91082 2.94805C2.05261 3.00194 2.20387 3.02642 2.35542 3.02002H2.36522C2.51703 3.02903 2.66909 3.007 2.8121 2.95527C2.95511 2.90353 3.08606 2.82318 3.19697 2.71913C3.30788 2.61507 3.3964 2.48949 3.45714 2.35007C3.51787 2.21064 3.54954 2.0603 3.55021 1.90822C3.55087 1.75614 3.52053 1.60553 3.46102 1.46557C3.40151 1.32562 3.31409 1.19927 3.2041 1.09425C3.09411 0.989221 2.96386 0.907726 2.82131 0.854739C2.67876 0.801753 2.5269 0.778388 2.37502 0.786073H2.37502ZM2.36522 2.32807H2.35542C2.29559 2.33534 2.2349 2.32973 2.17742 2.31161C2.11993 2.2935 2.06698 2.26331 2.02213 2.22306C1.97727 2.18281 1.94153 2.13343 1.91732 2.07824C1.89311 2.02304 1.88098 1.96331 1.88174 1.90305C1.88174 1.64492 2.07534 1.47801 2.37502 1.47801C2.43546 1.46996 2.49693 1.47495 2.55528 1.49264C2.61363 1.51034 2.66751 1.54034 2.71329 1.58061C2.75907 1.62089 2.79569 1.67051 2.82068 1.72613C2.84567 1.78174 2.85845 1.84207 2.85816 1.90305C2.85816 2.16117 2.66457 2.32807 2.36522 2.32807Z" fill="#F1F1F1" fill-opacity="0.7"/>
</g>
<defs>
<clipPath id="clip0_1_547">
<rect width="8.30334" height="8.30334" fill="white" transform="translate(0.640045 0.252569)"/>
</clipPath>
</defs>
</svg>
