<svg width="9" height="9" viewBox="0 0 9 9" fill="none" xmlns="http://www.w3.org/2000/svg">
<g clip-path="url(#clip0_1_545)">
<path d="M8.21986 1.61921C8.2199 1.5581 8.20374 1.49808 8.17304 1.44524C8.14233 1.39241 8.09817 1.34865 8.04505 1.31844C7.99194 1.28822 7.93176 1.27262 7.87065 1.27323C7.80955 1.27384 7.74969 1.29063 7.69718 1.32189C7.49468 1.44242 7.27667 1.53473 7.04918 1.59625C6.7243 1.31748 6.30995 1.16493 5.88187 1.16649C5.41224 1.16703 4.9612 1.35006 4.62399 1.67693C4.28678 2.0038 4.0898 2.44892 4.07464 2.91831C3.14881 2.77067 2.3097 2.28744 1.71734 1.56076C1.68165 1.51746 1.63606 1.48337 1.58444 1.46138C1.53281 1.43939 1.47665 1.43013 1.42069 1.4344C1.36477 1.439 1.31081 1.45716 1.26348 1.4873C1.21615 1.51744 1.17688 1.55865 1.14905 1.60738C1.00635 1.85642 0.924386 2.1356 0.909827 2.42225C0.895268 2.70891 0.94852 2.99496 1.06526 3.25717L1.06458 3.25784C1.01212 3.29016 0.968816 3.33539 0.938825 3.38922C0.908834 3.44306 0.893155 3.50368 0.893287 3.5653C0.892651 3.61613 0.8957 3.66695 0.90241 3.71734C0.937746 4.15266 1.13068 4.56015 1.44502 4.86337C1.42369 4.904 1.41068 4.94846 1.40673 4.99418C1.40279 5.03989 1.40799 5.08593 1.42204 5.12961C1.55909 5.55659 1.85053 5.91706 2.23934 6.14049C1.84432 6.29324 1.4178 6.3465 0.997348 6.29558C0.919529 6.28581 0.840702 6.30278 0.773798 6.34371C0.706893 6.38463 0.655883 6.44708 0.629135 6.52081C0.602387 6.59454 0.60149 6.67516 0.626591 6.74947C0.651691 6.82377 0.701299 6.88734 0.767277 6.92974C1.49039 7.39548 2.33234 7.64309 3.19246 7.64298C4.16785 7.65395 5.11952 7.34227 5.89943 6.75641C6.67935 6.17055 7.24378 5.34337 7.50494 4.40353C7.62709 3.99412 7.68946 3.56921 7.6901 3.14196C7.6901 3.11933 7.6901 3.09601 7.68976 3.0727C7.87039 2.8779 8.01033 2.64899 8.10135 2.3994C8.19238 2.14982 8.23267 1.88457 8.21986 1.61921ZM7.07585 2.73045C7.01871 2.79803 6.98979 2.88503 6.9951 2.97337C6.99848 3.03046 6.99814 3.08789 6.99814 3.14196C6.99744 3.503 6.94452 3.86203 6.84104 4.20792C6.62775 5.0076 6.15226 5.71257 5.49074 6.20992C4.82921 6.70728 4.01992 6.96825 3.19246 6.95104C2.89523 6.95113 2.59902 6.9162 2.30996 6.84698C2.67857 6.72819 3.02322 6.54505 3.32795 6.30606C3.38407 6.26186 3.42515 6.20139 3.44554 6.13292C3.46593 6.06446 3.46463 5.99137 3.44183 5.92367C3.41903 5.85597 3.37584 5.79699 3.31818 5.75481C3.26053 5.71264 3.19123 5.68933 3.11981 5.6881C2.83225 5.68363 2.55765 5.56771 2.35387 5.36477C2.40557 5.35497 2.45692 5.34281 2.50794 5.32828C2.58267 5.30701 2.64807 5.2612 2.69361 5.19824C2.73914 5.13528 2.76217 5.05883 2.75897 4.98119C2.75577 4.90355 2.72653 4.82925 2.67597 4.77025C2.62541 4.71125 2.55646 4.67098 2.48023 4.65593C2.31332 4.62297 2.15625 4.55195 2.02124 4.44841C1.88623 4.34487 1.77692 4.21159 1.7018 4.05892C1.76432 4.06746 1.82725 4.07276 1.89032 4.0748C1.96526 4.07594 2.03861 4.05321 2.09977 4.0099C2.16093 3.9666 2.20673 3.90496 2.23055 3.83391C2.25338 3.76221 2.2522 3.68502 2.22721 3.61405C2.20221 3.54308 2.15475 3.4822 2.09203 3.44063C1.93985 3.33925 1.8152 3.20171 1.72923 3.04033C1.64326 2.87894 1.59866 2.69876 1.59942 2.5159C1.59942 2.49293 1.6001 2.46996 1.60145 2.44732C2.37686 3.17049 3.38263 3.59679 4.44154 3.65113C4.49499 3.65323 4.54822 3.64316 4.59721 3.62168C4.6462 3.6002 4.68967 3.56787 4.72433 3.52713C4.75864 3.486 4.78294 3.43746 4.79531 3.38534C4.80768 3.33322 4.80778 3.27894 4.7956 3.22677C4.77582 3.14421 4.76572 3.05962 4.76553 2.97472C4.76585 2.67876 4.88356 2.395 5.09284 2.18572C5.30212 1.97644 5.58588 1.85873 5.88184 1.85842C6.03412 1.85801 6.18482 1.88918 6.32445 1.94995C6.46407 2.01071 6.58958 2.09977 6.69305 2.21149C6.73296 2.25442 6.78318 2.28642 6.83894 2.30446C6.89471 2.3225 6.95416 2.32597 7.01165 2.31455C7.15377 2.28689 7.29385 2.24964 7.43094 2.20306C7.33744 2.39437 7.21794 2.57184 7.07585 2.73045Z" fill="#F1F1F1" fill-opacity="0.7"/>
</g>
<defs>
<clipPath id="clip0_1_545">
<rect width="8.30334" height="8.30334" fill="white" transform="translate(0.265587 0.252569)"/>
</clipPath>
</defs>
</svg>
